Coordinates
version=1
nRows=7
nColumns=63
inDegrees=yes

Units are S.I. units (second, meters, Newtons, ...)
If the header above contains a line with 'inDegrees', this indicates whether rotational values are in degrees (yes) or radians (no).

endheader
time	pelvis_tilt	pelvis_list	pelvis_rotation	pelvis_tx	pelvis_ty	pelvis_tz	hip_flexion_r	hip_adduction_r	hip_rotation_r	knee_angle_r	knee_angle_r_beta	ankle_angle_r	subtalar_angle_r	mtp_angle_r	hip_flexion_l	hip_adduction_l	hip_rotation_l	knee_angle_l	knee_angle_l_beta	ankle_angle_l	subtalar_angle_l	mtp_angle_l	L5_S1_Flex_Ext	L5_S1_Lat_Bending	L5_S1_axial_rotation	L4_L5_Flex_Ext	L4_L5_Lat_Bending	L4_L5_axial_rotation	L3_L4_Flex_Ext	L3_L4_Lat_Bending	L3_L4_axial_rotation	L2_L3_Flex_Ext	L2_L3_Lat_Bending	L2_L3_axial_rotation	L1_L2_Flex_Ext	L1_L2_Lat_Bending	L1_L2_axial_rotation	L1_T12_Flex_Ext	L1_T12_Lat_Bending	L1_T12_axial_rotation	Abs_r3	Abs_r2	Abs_r1	Abs_t1	Abs_t2	neck_flexion	neck_bending	neck_rotation	arm_flex_r	arm_add_r	arm_rot_r	elbow_flex_r	pro_sup_r	wrist_flex_r	wrist_dev_r	arm_flex_l	arm_add_l	arm_rot_l	elbow_flex_l	pro_sup_l	wrist_flex_l	wrist_dev_l
      0.00800000	    -53.54181900	     -1.14322039	      2.18398765	     -0.26870646	      1.01611106	      0.01874875	     85.81582726	     -5.80328134	     -3.76858345	     62.51024132	      1.09100953	      8.34807910	     -6.62332257	      0.00000000	    127.66762075	     -2.13538612	      5.15803148	    101.04634151	      1.76359136	     10.21146785	      0.70100878	      0.00000000	     -0.07797546	     -0.12237582	     -0.52939277	     -0.14480822	     -0.16275983	     -0.56247981	     -0.12810588	     -0.29754456	     -0.56247981	     -0.08911815	     -0.29754456	     -0.46321867	     -0.07240801	     -0.24954876	     -0.43013162	     -0.04455518	     -0.18956014	     -0.39704457	     -0.55697091	     -1.38433970	     -2.94432374	      0.00000000	      0.00000000	      0.00000000	      0.00000000	      0.00000001	     74.73922607	     -7.26967903	      2.45333490	     24.02571214	     61.04628700	      0.00000000	      4.02637243	     74.58067043	    -10.25819741	     14.12125416	     30.41316431	     62.69605085	      0.00000000	      4.02637243
      0.01700000	    -53.62002672	     -0.68551282	      1.64289159	     -0.26981405	      1.01538511	      0.02019238	     87.17411804	     -5.54056624	     -3.61714676	     66.65737160	      1.16339061	      9.14867840	     -6.94553490	      0.00000000	    126.48397896	     -2.56063504	      5.19432498	     97.68729936	      1.70496501	      9.62660335	      0.54286694	      0.00000000	     -0.07722511	     -0.19078222	     -0.45749653	     -0.14341475	     -0.25374036	     -0.48609006	     -0.12687313	     -0.46386790	     -0.48609006	     -0.08826057	     -0.46386790	     -0.40030946	     -0.07171123	     -0.38904311	     -0.37171593	     -0.04412643	     -0.29552167	     -0.34312240	     -0.55161121	     -2.15816668	     -2.54445845	      0.00000000	      0.00000000	      0.00000000	      0.00000000	      0.00000001	     74.53713849	     -7.28782572	      2.65342085	     24.89085529	     61.02578099	      0.00000000	      4.04816769	     74.73572598	    -10.35963464	     13.65372244	     30.52109363	     62.59687390	      0.00000000	      4.04816769
      0.02500000	    -53.62065385	     -0.69073241	      1.42753730	     -0.26981709	      1.01518283	      0.02059830	     87.62619975	     -5.34112693	     -3.46610903	     68.02534771	      1.18726629	      9.61168523	     -7.02014450	      0.00000000	    126.01190362	     -2.75083026	      5.30623435	     96.73410051	      1.68832855	      9.65133867	      0.31329274	      0.00000000	     -0.07904716	     -0.19216665	     -0.41019105	     -0.14679849	     -0.25558164	     -0.43582799	     -0.12986659	     -0.46723399	     -0.43582799	     -0.09034300	     -0.46723399	     -0.35891717	     -0.07340320	     -0.39186623	     -0.33328022	     -0.04516755	     -0.29766614	     -0.30764328	     -0.56462599	     -2.17382756	     -2.28135954	      0.00000000	      0.00000000	      0.00000000	      0.00000000	      0.00000001	     74.45428805	     -7.36047442	      2.67421269	     25.16684134	     60.74729482	      0.00000000	      4.07900245	     74.63845901	    -10.34770695	     13.56481219	     30.82766925	     62.28464452	      0.00000000	      4.07900245
      0.03300000	    -53.61082923	     -0.64339096	      1.26376392	     -0.26970283	      1.01494395	      0.02090511	     88.21191827	     -5.21368695	     -3.13666989	     69.73583461	      1.21711992	     10.18829655	     -6.70593546	      0.00000000	    125.39961001	     -2.93829889	      5.29430204	     95.60138699	      1.66855897	      9.70489866	     -0.01151593	      0.00000000	     -0.08026830	     -0.19922477	     -0.37140414	     -0.14906625	     -0.26496894	     -0.39461690	     -0.13187278	     -0.48439510	     -0.39461690	     -0.09173863	     -0.48439510	     -0.32497862	     -0.07453714	     -0.40625914	     -0.30176586	     -0.04586530	     -0.30859916	     -0.27855311	     -0.57334841	     -2.25367040	     -2.06563841	      0.00000000	      0.00000000	      0.00000000	      0.00000000	      0.00000001	     74.33737891	     -7.43537019	      2.72822560	     25.45308098	     60.32892388	      0.00000000	      4.13101878	     74.49790709	    -10.33663090	     13.42272282	     31.12168685	     61.79671647	      0.00000000	      4.13101878
      0.04200000	    -53.64452087	     -0.28201914	      1.37999663	     -0.26968550	      1.01493354	      0.02114342	     89.03617643	     -5.33767422	     -2.53363094	     71.69342354	      1.25128629	      9.96889809	     -7.72391658	      0.00000000	    124.56079871	     -3.10454369	      4.66578793	     94.07336248	      1.64188991	      9.65686130	     -0.87551158	      0.00000000	     -0.07862329	     -0.25154398	     -0.39058215	     -0.14601130	     -0.33455349	     -0.41499354	     -0.12917020	     -0.61160403	     -0.41499354	     -0.08985855	     -0.61160403	     -0.34175938	     -0.07300958	     -0.51294848	     -0.31734800	     -0.04492535	     -0.38964162	     -0.29293661	     -0.56159827	     -2.84551580	     -2.17230076	      0.00000000	      0.00000000	      0.00000000	      0.00000000	      0.00000001	     74.25440672	     -7.45613719	      3.10527799	     25.50566293	     60.08382960	      0.00000000	      4.17838946	     74.52632541	    -10.27197014	     12.99004529	     31.14149607	     61.42480314	      0.00000000	      4.17838946
      0.05000000	    -53.64034545	     -0.22150971	      1.23598682	     -0.26948193	      1.01484490	      0.02141463	     89.82704777	     -5.17791197	     -2.14314831	     73.77425328	      1.28760362	      9.99825108	     -8.40659840	      0.00000000	    123.71082033	     -3.29503642	      4.49152704	     92.51909444	      1.61476282	      9.54490339	     -1.46402408	      0.00000000	     -0.07933131	     -0.25965142	     -0.35549247	     -0.14732617	     -0.34533639	     -0.37771074	     -0.13033340	     -0.63131647	     -0.37771074	     -0.09066775	     -0.63131647	     -0.31105591	     -0.07366705	     -0.52948118	     -0.28883763	     -0.04532991	     -0.40220006	     -0.26661935	     -0.56665559	     -2.93722883	     -1.97714245	      0.00000000	      0.00000000	      0.00000000	      0.00000000	      0.00000001	     74.12082150	     -7.60940772	      3.56734708	     25.83897482	     59.74922691	      0.00000000	      4.23733807	     74.38681685	    -10.21324517	     12.69570213	     31.37622512	     60.97260855	      0.00000000	      4.23733807
      0.05800000	    -53.60790262	     -0.39871268	      0.86697453	     -0.26904359	      1.01473115	      0.02183054	     90.52821327	     -4.78584108	     -1.95846049	     75.86527769	      1.32409888	     10.49485583	     -8.59353442	      0.00000000	    122.83387070	     -3.54483758	      4.70019274	     90.91860049	      1.58682893	      9.51461920	     -1.56726797	      0.00000000	     -0.07950020	     -0.23541042	     -0.28137135	     -0.14763983	     -0.31309586	     -0.29895706	     -0.13061088	     -0.57237690	     -0.29895706	     -0.09086078	     -0.57237690	     -0.24619993	     -0.07382389	     -0.48004893	     -0.22861422	     -0.04542642	     -0.36465074	     -0.21102851	     -0.56786200	     -2.66300977	     -1.56490302	      0.00000000	      0.00000000	      0.00000000	      0.00000000	      0.00000001	     73.96782466	     -7.72447409	      3.66607713	     26.21178950	     59.44363980	      0.00000000	      4.26504002	     74.12525106	    -10.18921212	     12.63802520	     31.72416948	     60.62672850	      0.00000000	      4.26504002
